# xmcd
#
# Track frame offsets:
#	150
#	13453
#	27673
#	40558
#	56315
#	73983
#	93798
#	106205
#	118033
#	133063
#	150195
#	166143
#	181283
#	197120
#	214435
#	227063
#	243728
#	259703
#	276333
#	292218
#	308245
#
# Disc length: 4299
#
# Revision: 2
# Processed by: cddbd v1.5.1PL0 Copyright (c) Steve Scherf et al.
# Submitted via: ExactAudioCopy v0.90b3
# Normalized: r0:DSETVAR1,TDELIM( - ),TSWAP
#
DISCID=3810c915
DTITLE=Various Artist - Top Hits USA RC26
DYEAR=1994
DGENRE=Country
TTITLE0=Joe Diffie - Third Rock From The Sun
TTITLE1=Tracy Byrd - Watermelon Crawl
TTITLE2=Pam Tillis - When You Walk In The Room
TTITLE3=Toby Keith - Who's That Man
TTITLE4=Alan Jackson - Livin' On Love
TTITLE5=Reba McEntire - She Thinks His Name Was John
TTITLE6=Garth Brooks - Callin' Baton Rouge
TTITLE7=Tim McGraw - Down On The Farm
TTITLE8=Brooks and Dunn - She's Not The Cheatin' Kind
TTITLE9=Mary Chapin Carpenter - Shut Up And Kiss
TTITLE10=Collin Raye - Man Of My Word
TTITLE11=John Berry - What's In It For Me
TTITLE12=Sammy Kershaw - Third Rate Romance
TTITLE13=Mark Chesnutt - She Dreams
TTITLE14=Patty Loveless - I Try To Think About Elvis
TTITLE15=Neal McCoy - City Put The Country Back In Me
TTITLE16=Blackhawk - I Sure Can Smell The Rain
TTITLE17=Kathy Mattea - Nobody's Gonna Rain On Our Parade
TTITLE18=Doug Stone - More Love
TTITLE19=Sawyer Brown - Hard To Say
TTITLE20=Mavericks - O What A Thrill
EXTD=
EXTT0=
EXTT1=
EXTT2=
EXTT3=
EXTT4=
EXTT5=
EXTT6=
EXTT7=
EXTT8=
EXTT9=
EXTT10=
EXTT11=
EXTT12=
EXTT13=
EXTT14=
EXTT15=
EXTT16=
EXTT17=
EXTT18=
EXTT19=
EXTT20=
PLAYORDER=
